<svg width="20" height="21" viewBox="0 0 20 21" fill="none" xmlns="http://www.w3.org/2000/svg">
<path d="M13.6167 2.1665H6.39175C3.56675 2.1665 1.66675 4.14984 1.66675 7.09984V13.9082C1.66675 16.8498 3.56675 18.8332 6.39175 18.8332H13.6167C16.4417 18.8332 18.3334 16.8498 18.3334 13.9082V7.09984C18.3334 4.14984 16.4417 2.1665 13.6167 2.1665Z" fill="#494F68"/>
<path fill-rule="evenodd" clip-rule="evenodd" d="M9.27124 7.32441C9.27124 7.72608 9.59707 8.05358 9.99624 8.05358C10.4071 8.05358 10.7337 7.72608 10.7337 7.32441C10.7337 6.92275 10.4071 6.59525 10.0046 6.59525C9.6004 6.59525 9.27124 6.92275 9.27124 7.32441ZM10.7247 9.96841C10.7247 9.56674 10.3972 9.23924 9.99552 9.23924C9.59386 9.23924 9.26636 9.56674 9.26636 9.96841V13.6517C9.26636 14.0534 9.59386 14.3809 9.99552 14.3809C10.3972 14.3809 10.7247 14.0534 10.7247 13.6517V9.96841Z" fill="white"/>
</svg>
