<svg width="20" height="21" viewBox="0 0 20 21" fill="none" xmlns="http://www.w3.org/2000/svg">
<path d="M14.191 0.5H5.81C2.77 0.5 1 2.28 1 5.33V15.66C1 18.76 2.77 20.5 5.81 20.5H14.191C17.28 20.5 19 18.76 19 15.66V5.33C19 2.28 17.28 0.5 14.191 0.5Z" fill="white"/>
<path fill-rule="evenodd" clip-rule="evenodd" d="M6.07996 5.14999V5.15999C5.64896 5.15999 5.29996 5.50999 5.29996 5.93999C5.29996 6.36999 5.64896 6.71999 6.07996 6.71999H9.06896C9.49996 6.71999 9.84996 6.36999 9.84996 5.92899C9.84996 5.49999 9.49996 5.14999 9.06896 5.14999H6.07996ZM13.92 11.24H6.07996C5.64896 11.24 5.29996 10.89 5.29996 10.46C5.29996 10.03 5.64896 9.67899 6.07996 9.67899H13.92C14.35 9.67899 14.7 10.03 14.7 10.46C14.7 10.89 14.35 11.24 13.92 11.24ZM13.92 15.81H6.07996C5.77996 15.85 5.48996 15.7 5.32996 15.45C5.16996 15.19 5.16996 14.86 5.32996 14.61C5.48996 14.35 5.77996 14.21 6.07996 14.24H13.92C14.319 14.28 14.62 14.62 14.62 15.03C14.62 15.429 14.319 15.77 13.92 15.81Z" fill="#494F68"/>
</svg>
