<svg width="16" height="17" viewBox="0 0 16 17" fill="none" xmlns="http://www.w3.org/2000/svg">
<path d="M5.6197 15.8184V13.2627C5.61968 12.6151 6.14631 12.0889 6.79861 12.0848H9.19376C9.84898 12.0848 10.3801 12.6122 10.3801 13.2627V15.811C10.3801 16.3727 10.8366 16.8292 11.4024 16.8333H13.0364C13.7996 16.8353 14.5322 16.5357 15.0726 16.0006C15.6129 15.4655 15.9166 14.739 15.9166 13.9813V6.72153C15.9166 6.10948 15.6433 5.52892 15.1704 5.13624L9.61907 0.728547C8.64868 -0.0424081 7.26273 -0.0175033 6.32108 0.78781L0.889095 5.13624C0.393869 5.51734 0.0978789 6.09963 0.083252 6.72153V13.9739C0.083252 15.5531 1.37274 16.8333 2.9634 16.8333H4.56016C4.83256 16.8353 5.09449 16.7292 5.28781 16.5387C5.48113 16.3481 5.58986 16.0889 5.58985 15.8184H5.6197Z" fill="white"/>
</svg>
