<svg width="20" height="21" viewBox="0 0 20 21" fill="none" xmlns="http://www.w3.org/2000/svg">
<path d="M13.4925 2.16666H6.50833C3.975 2.16666 2.5 3.64999 2.5 6.19166V14.8C2.5 17.3833 3.975 18.8333 6.50833 18.8333H13.4925C16.0667 18.8333 17.5 17.3833 17.5 14.8V6.19166C17.5 3.64999 16.0667 2.16666 13.4925 2.16666Z" fill="#494F68"/>
<path fill-rule="evenodd" clip-rule="evenodd" d="M6.73337 6.04166V6.04999C6.37421 6.04999 6.08337 6.34166 6.08337 6.69999C6.08337 7.05832 6.37421 7.34999 6.73337 7.34999H9.22421C9.58337 7.34999 9.87504 7.05832 9.87504 6.69082C9.87504 6.33332 9.58337 6.04166 9.22421 6.04166H6.73337ZM13.2667 11.1166H6.73337C6.37421 11.1166 6.08337 10.825 6.08337 10.4666C6.08337 10.1083 6.37421 9.81582 6.73337 9.81582H13.2667C13.625 9.81582 13.9167 10.1083 13.9167 10.4666C13.9167 10.825 13.625 11.1166 13.2667 11.1166ZM13.2666 14.925H6.7333C6.4833 14.9583 6.24163 14.8333 6.1083 14.625C5.97497 14.4083 5.97497 14.1333 6.1083 13.925C6.24163 13.7083 6.4833 13.5917 6.7333 13.6167H13.2666C13.5991 13.65 13.85 13.9333 13.85 14.275C13.85 14.6075 13.5991 14.8917 13.2666 14.925Z" fill="white"/>
</svg>
