<svg width="20" height="21" viewBox="0 0 20 21" fill="none" xmlns="http://www.w3.org/2000/svg">
<rect x="6.66699" y="13.8333" width="6.66667" height="5" fill="white"/>
<path d="M7.61945 17.8184V15.2627C7.61944 14.6151 8.14607 14.0889 8.79837 14.0848H11.1935C11.8487 14.0848 12.3799 14.6122 12.3799 15.2627V17.811C12.3799 18.3727 12.8364 18.8292 13.4021 18.8333H15.0362C15.7994 18.8353 16.532 18.5357 17.0723 18.0006C17.6127 17.4655 17.9163 16.739 17.9163 15.9813V8.72153C17.9163 8.10948 17.6431 7.52892 17.1702 7.13624L11.6188 2.72855C10.6484 1.95759 9.26249 1.9825 8.32083 2.78781L2.88885 7.13624C2.39362 7.51734 2.09763 8.09963 2.08301 8.72153V15.9739C2.08301 17.5531 3.37249 18.8333 4.96315 18.8333H6.55992C6.83232 18.8353 7.09425 18.7292 7.28757 18.5387C7.48089 18.3481 7.58961 18.0889 7.5896 17.8184H7.61945Z" fill="#494F68"/>
</svg>
